# xmcd
#
# Track frame offsets: 
#        187
#        12559
#        25869
#        36422
#        49324
#        61144
#        74004
#        88007
#        101702
#        113144
#        124902
#        136592
#        146912
#        159904
#        170442
#        182852
#        197239
#        212872
#        228019
#        240842
#
# Disc length: 3355 seconds
#
# Revision: 3
# Processed by: cddbd v1.5.1PL0 Copyright (c) Steve Scherf et al.
# Submitted via: ExactAudioCopy v0.95a4
#
DISCID=1e0d1914
DTITLE=Ray Charles - The Best Of Ray Charles: The Atlantic Years
DYEAR=1994
DGENRE=R&B
TTITLE0=It Should've Been Me
TTITLE1=Don't You Know
TTITLE2=Blackjack
TTITLE3=I've Got A Woman
TTITLE4=What Would I Do Without You
TTITLE5=Greenbacks
TTITLE6=Come Back
TTITLE7=A Fool For You
TTITLE8=This Little Girl Of Mine
TTITLE9=Hallelujah I Love Her So
TTITLE10=Lonely Avenue
TTITLE11=It's Alright
TTITLE12=Ain't That Love
TTITLE13=Swanee River Rock (Talkin' 'Bout That River)
TTITLE14=That's Enough
TTITLE15=What'd I Say (Part I)
TTITLE16=(Night Time Is) The Right Time
TTITLE17=Drown In My Own Tears
TTITLE18=Tell The Truth (Live)
TTITLE19=Just For A Thrill
EXTD=
EXTT0=
EXTT1=
EXTT2=
EXTT3=
EXTT4=
EXTT5=
EXTT6=
EXTT7=
EXTT8=
EXTT9=
EXTT10=
EXTT11=
EXTT12=
EXTT13=
EXTT14=
EXTT15=
EXTT16=
EXTT17=
EXTT18=
EXTT19=
PLAYORDER=
